<svg width="20" height="20" viewBox="0 0 20 20" fill="none" xmlns="http://www.w3.org/2000/svg">
<path d="M1 15V9M19 15V9M6 15.5C6 17.9853 5.433 19 3.5 19C1.567 19 1 17.9853 1 15.5C1 13.0147 1.567 12 3.5 12C5.433 12 6 13.0147 6 15.5ZM19 15.5C19 17.9853 18.433 19 16.5 19C14.567 19 14 17.9853 14 15.5C14 13.0147 14.567 12 16.5 12C18.433 12 19 13.0147 19 15.5Z" stroke="#2C3550" stroke-width="2"/>
<path d="M19 9C19 3.47715 15.5228 1 10 1C4.47715 1 1 3.47715 1 9" stroke="#2C3550" stroke-width="2"/>
</svg>
