<svg width="21" height="21" viewBox="0 0 21 21" fill="none" xmlns="http://www.w3.org/2000/svg">
<path d="M10.377 6.58499C8.28701 6.58499 6.58701 8.28499 6.58701 10.375C6.58701 12.465 8.28701 14.165 10.377 14.165C12.467 14.165 14.167 12.465 14.167 10.375C14.167 8.28499 12.467 6.58499 10.377 6.58499ZM10.377 12.665C9.11501 12.665 8.08701 11.639 8.08701 10.375C8.08701 9.11099 9.11701 8.08499 10.377 8.08499C11.637 8.08499 12.667 9.11099 12.667 10.375C12.667 11.639 11.639 12.665 10.377 12.665V12.665Z" fill="#8894B5"/>
<path d="M10.737 20.75H10.015C8.832 20.75 7.861 19.862 7.753 18.686L7.739 18.539C7.714 18.252 7.532 18.006 7.267 17.895C6.981 17.775 6.685 17.83 6.469 18.01L6.353 18.107C5.485 18.832 4.1 18.77 3.293 17.967L2.783 17.457C1.947 16.617 1.887 15.303 2.643 14.397L2.741 14.279C2.927 14.057 2.971 13.756 2.863 13.492C2.753 13.22 2.505 13.038 2.217 13.012L2.067 12.998C0.887 12.891 0 11.918 0 10.736V10.014C0 8.831 0.888 7.86 2.064 7.752L2.22 7.738C2.505 7.713 2.75 7.531 2.862 7.265C2.972 6.995 2.927 6.692 2.742 6.47L2.648 6.354C1.891 5.446 1.95 4.131 2.785 3.294L3.297 2.782C4.101 1.978 5.485 1.917 6.357 2.642L6.473 2.74C6.691 2.924 7.001 2.97 7.263 2.862C7.533 2.75 7.715 2.504 7.74 2.219L7.754 2.066C7.861 0.886 8.834 0 10.016 0H10.738C11.921 0 12.892 0.888 13 2.064L13.014 2.22C13.039 2.505 13.22 2.75 13.486 2.86C13.763 2.977 14.066 2.922 14.28 2.743L14.4 2.641C15.267 1.918 16.654 1.979 17.46 2.781L17.97 3.293C18.806 4.131 18.866 5.446 18.11 6.353L18.01 6.471C17.822 6.691 17.776 6.993 17.887 7.259C17.999 7.529 18.247 7.709 18.533 7.737L18.685 7.751C19.865 7.858 20.752 8.831 20.752 10.013V10.736C20.752 11.919 19.864 12.89 18.688 12.998L18.533 13.012C18.249 13.036 18.003 13.217 17.893 13.482C17.78 13.754 17.826 14.056 18.01 14.277L18.11 14.397C18.866 15.302 18.806 16.617 17.97 17.457L17.46 17.967C16.653 18.771 15.27 18.831 14.4 18.107L14.285 18.011C14.068 17.828 13.755 17.781 13.495 17.889C13.222 18.003 13.04 18.249 13.015 18.535L13.001 18.685C12.894 19.858 11.921 20.745 10.739 20.745L10.737 20.75ZM6.964 16.33C7.264 16.33 7.557 16.39 7.834 16.505C8.624 16.833 9.158 17.559 9.234 18.401L9.248 18.548C9.285 18.948 9.615 19.248 10.018 19.248H10.74C11.14 19.248 11.47 18.948 11.508 18.548L11.522 18.4C11.598 17.558 12.132 16.833 12.914 16.508C13.707 16.178 14.61 16.326 15.247 16.858L15.36 16.952C15.538 17.1 15.726 17.132 15.853 17.132C16.059 17.132 16.253 17.052 16.399 16.905L16.909 16.395C17.193 16.111 17.214 15.665 16.957 15.357L16.857 15.237C16.315 14.587 16.18 13.697 16.505 12.914C16.831 12.124 17.557 11.594 18.399 11.517L18.554 11.503C18.951 11.466 19.254 11.136 19.254 10.733V10.011C19.254 9.611 18.951 9.281 18.552 9.243L18.4 9.229C17.554 9.151 16.83 8.619 16.505 7.836C16.179 7.048 16.315 6.158 16.858 5.509L16.958 5.391C17.215 5.081 17.194 4.635 16.91 4.351L16.4 3.841C16.254 3.694 16.06 3.614 15.854 3.614C15.727 3.614 15.539 3.646 15.362 3.794L15.242 3.894C14.608 4.422 13.692 4.564 12.92 4.248C12.132 3.921 11.6 3.196 11.523 2.352L11.509 2.197C11.474 1.8 11.144 1.497 10.742 1.497H10.019C9.619 1.497 9.289 1.8 9.251 2.199L9.237 2.351C9.161 3.194 8.629 3.919 7.847 4.244C7.06 4.57 6.154 4.427 5.517 3.894L5.399 3.798C5.219 3.648 5.031 3.618 4.904 3.618C4.698 3.618 4.504 3.698 4.358 3.844L3.846 4.354C3.564 4.638 3.543 5.084 3.8 5.392L3.9 5.51C4.44 6.163 4.577 7.054 4.252 7.835C3.925 8.623 3.2 9.155 2.357 9.232L2.201 9.246C1.804 9.283 1.501 9.613 1.501 10.016V10.738C1.501 11.138 1.804 11.468 2.203 11.506L2.353 11.52C3.201 11.598 3.926 12.132 4.25 12.916C4.575 13.702 4.44 14.591 3.897 15.241L3.801 15.356C3.541 15.666 3.563 16.112 3.847 16.396L4.357 16.906C4.503 17.053 4.697 17.133 4.903 17.133C5.03 17.133 5.218 17.103 5.395 16.953L5.511 16.857C5.917 16.521 6.434 16.333 6.964 16.333V16.33Z" fill="#8894B5"/>
</svg>
